<svg width="269" height="18" viewBox="0 0 269 18" fill="none" xmlns="http://www.w3.org/2000/svg">
<path d="M0.585227 14H2.04261V12.4915H2.22159C2.55398 13.0284 3.19318 14.2045 5.08523 14.2045C7.53977 14.2045 9.25284 12.2358 9.25284 9.11648C9.25284 6.02273 7.53977 4.05398 5.05966 4.05398C3.14205 4.05398 2.55398 5.23011 2.22159 5.74148H2.09375V0.909091H0.585227V14ZM2.06818 9.09091C2.06818 6.89205 3.03977 5.40909 4.88068 5.40909C6.7983 5.40909 7.74432 7.01989 7.74432 9.09091C7.74432 11.1875 6.77273 12.8494 4.88068 12.8494C3.06534 12.8494 2.06818 11.3153 2.06818 9.09091ZM17.7479 9.9858C17.7479 11.8267 16.3416 12.6705 15.2166 12.6705C13.9638 12.6705 13.0689 11.75 13.0689 10.3182V4.18182H11.5604V10.4205C11.5604 12.9261 12.8899 14.1278 14.7308 14.1278C16.2138 14.1278 17.1854 13.3352 17.6456 12.3381H17.7479V14H19.2564V4.18182H17.7479V9.9858ZM26.2892 4.18182H24.1926V1.82955H22.6841V4.18182H21.2012V5.46023H22.6841V11.5966C22.6841 13.3097 24.0648 14.1278 25.3432 14.1278C25.9057 14.1278 26.2637 14.0256 26.4682 13.9489L26.1614 12.5938C26.0336 12.6193 25.829 12.6705 25.4966 12.6705C24.8319 12.6705 24.1926 12.4659 24.1926 11.1875V5.46023H26.2892V4.18182ZM32.8283 4.18182H30.7317V1.82955H29.2232V4.18182H27.7402V5.46023H29.2232V11.5966C29.2232 13.3097 30.6039 14.1278 31.8823 14.1278C32.4448 14.1278 32.8027 14.0256 33.0073 13.9489L32.7005 12.5938C32.5726 12.6193 32.3681 12.6705 32.0357 12.6705C31.3709 12.6705 30.7317 12.4659 30.7317 11.1875V5.46023H32.8283V4.18182ZM38.9806 14.2045C41.6397 14.2045 43.4295 12.1847 43.4295 9.14205C43.4295 6.07386 41.6397 4.05398 38.9806 4.05398C36.3216 4.05398 34.5318 6.07386 34.5318 9.14205C34.5318 12.1847 36.3216 14.2045 38.9806 14.2045ZM38.9806 12.8494C36.9608 12.8494 36.0403 11.1108 36.0403 9.14205C36.0403 7.1733 36.9608 5.40909 38.9806 5.40909C41.0005 5.40909 41.921 7.1733 41.921 9.14205C41.921 11.1108 41.0005 12.8494 38.9806 12.8494ZM47.2408 8.09375C47.2408 6.38068 48.3018 5.40909 49.7464 5.40909C51.1463 5.40909 51.9964 6.32315 51.9964 7.86364V14H53.505V7.76136C53.505 5.25568 52.169 4.05398 50.1811 4.05398C48.6982 4.05398 47.7777 4.71875 47.3175 5.71591H47.1896V4.18182H45.7322V14H47.2408V8.09375ZM68.2786 6.38068C67.8056 4.98722 66.7445 4.05398 64.8013 4.05398C62.7303 4.05398 61.1962 5.23011 61.1962 6.89205C61.1962 8.24716 62.0016 9.15483 63.8042 9.5767L65.4405 9.96023C66.4313 10.1903 66.8979 10.6634 66.8979 11.3409C66.8979 12.1847 66.003 12.875 64.5968 12.875C63.3631 12.875 62.5897 12.3445 62.3212 11.2898L60.8894 11.6477C61.2409 13.3161 62.6152 14.2045 64.6223 14.2045C66.9043 14.2045 68.4576 12.9581 68.4576 11.2642C68.4576 9.89631 67.601 9.03338 65.8496 8.60511L64.3922 8.24716C63.2289 7.95952 62.7047 7.5696 62.7047 6.81534C62.7047 5.97159 63.5996 5.35795 64.8013 5.35795C66.1181 5.35795 66.6614 6.08665 66.9235 6.7642L68.2786 6.38068ZM74.9982 4.18182H72.9016V1.82955H71.3931V4.18182H69.9102V5.46023H71.3931V11.5966C71.3931 13.3097 72.7738 14.1278 74.0522 14.1278C74.6147 14.1278 74.9727 14.0256 75.1772 13.9489L74.8704 12.5938C74.7425 12.6193 74.538 12.6705 74.2056 12.6705C73.5408 12.6705 72.9016 12.4659 72.9016 11.1875V5.46023H74.9982V4.18182ZM80.1566 14.2301C81.8697 14.2301 82.7646 13.3097 83.0714 12.6705H83.1481V14H84.6566V7.53125C84.6566 4.41193 82.2788 4.05398 81.0259 4.05398C79.543 4.05398 77.8555 4.56534 77.0884 6.35511L78.5202 6.86648C78.8526 6.15057 79.6388 5.38352 81.0771 5.38352C82.4641 5.38352 83.1481 6.11861 83.1481 7.37784V7.42898C83.1481 8.15767 82.4066 8.09375 80.6168 8.32386C78.7951 8.56037 76.8072 8.96307 76.8072 11.2131C76.8072 13.1307 78.2901 14.2301 80.1566 14.2301ZM80.3867 12.875C79.185 12.875 78.3157 12.3381 78.3157 11.2898C78.3157 10.1392 79.364 9.78125 80.5401 9.62784C81.1793 9.55114 82.8924 9.37216 83.1481 9.06534V10.446C83.1481 11.6733 82.1765 12.875 80.3867 12.875ZM91.6799 4.18182H89.5833V1.82955H88.0748V4.18182H86.5918V5.46023H88.0748V11.5966C88.0748 13.3097 89.4554 14.1278 90.7338 14.1278C91.2963 14.1278 91.6543 14.0256 91.8588 13.9489L91.552 12.5938C91.4242 12.6193 91.2196 12.6705 90.8873 12.6705C90.2225 12.6705 89.5833 12.4659 89.5833 11.1875V5.46023H91.6799V4.18182ZM97.9601 14.2045C99.9544 14.2045 101.412 13.2074 101.872 11.7244L100.415 11.3153C100.031 12.3381 99.1426 12.8494 97.9601 12.8494C96.1895 12.8494 94.9686 11.7053 94.8983 9.60227H102.025V8.96307C102.025 5.30682 99.8521 4.05398 97.8066 4.05398C95.1475 4.05398 93.3833 6.15057 93.3833 9.16761C93.3833 12.1847 95.122 14.2045 97.9601 14.2045ZM94.8983 8.2983C95.0005 6.7706 96.0808 5.40909 97.8066 5.40909C99.443 5.40909 100.491 6.63636 100.491 8.2983H94.8983ZM109.92 8.47727C109.92 11.6989 110.789 14.3835 112.349 16.6591H113.678C112.451 14.9716 111.479 11.5199 111.479 8.47727C111.479 5.43466 112.451 1.98295 113.678 0.295454H112.349C110.789 2.57102 109.92 5.25568 109.92 8.47727ZM115.904 14H117.413V7.78693C117.413 6.45739 118.461 5.4858 119.893 5.4858C120.295 5.4858 120.711 5.5625 120.813 5.58807V4.05398C120.641 4.04119 120.244 4.02841 120.021 4.02841C118.844 4.02841 117.822 4.69318 117.464 5.66477H117.362V4.18182H115.904V14ZM126.419 14.2045C128.413 14.2045 129.871 13.2074 130.331 11.7244L128.874 11.3153C128.49 12.3381 127.602 12.8494 126.419 12.8494C124.648 12.8494 123.428 11.7053 123.357 9.60227H130.484V8.96307C130.484 5.30682 128.311 4.05398 126.266 4.05398C123.607 4.05398 121.842 6.15057 121.842 9.16761C121.842 12.1847 123.581 14.2045 126.419 14.2045ZM123.357 8.2983C123.46 6.7706 124.54 5.40909 126.266 5.40909C127.902 5.40909 128.95 6.63636 128.95 8.2983H123.357ZM136.742 17.8864C139.094 17.8864 140.987 16.8125 140.987 14.2812V4.18182H139.529V5.74148H139.376C139.043 5.23011 138.43 4.05398 136.512 4.05398C134.032 4.05398 132.319 6.02273 132.319 9.03977C132.319 12.108 134.109 13.8466 136.487 13.8466C138.404 13.8466 139.018 12.7216 139.35 12.1847H139.478V14.179C139.478 15.8153 138.327 16.5568 136.742 16.5568C134.959 16.5568 134.332 15.6172 133.93 15.0739L132.728 15.9176C133.342 16.9467 134.55 17.8864 136.742 17.8864ZM136.691 12.4915C134.799 12.4915 133.827 11.0597 133.827 9.0142C133.827 7.01989 134.773 5.40909 136.691 5.40909C138.532 5.40909 139.504 6.89205 139.504 9.0142C139.504 11.1875 138.506 12.4915 136.691 12.4915ZM149.935 9.9858C149.935 11.8267 148.529 12.6705 147.404 12.6705C146.151 12.6705 145.256 11.75 145.256 10.3182V4.18182H143.748V10.4205C143.748 12.9261 145.077 14.1278 146.918 14.1278C148.401 14.1278 149.373 13.3352 149.833 12.3381H149.935V14H151.444V4.18182H149.935V9.9858ZM155.715 0.909091H154.207V14H155.715V0.909091ZM161.368 14.2301C163.081 14.2301 163.975 13.3097 164.282 12.6705H164.359V14H165.868V7.53125C165.868 4.41193 163.49 4.05398 162.237 4.05398C160.754 4.05398 159.066 4.56534 158.299 6.35511L159.731 6.86648C160.064 6.15057 160.85 5.38352 162.288 5.38352C163.675 5.38352 164.359 6.11861 164.359 7.37784V7.42898C164.359 8.15767 163.618 8.09375 161.828 8.32386C160.006 8.56037 158.018 8.96307 158.018 11.2131C158.018 13.1307 159.501 14.2301 161.368 14.2301ZM161.598 12.875C160.396 12.875 159.527 12.3381 159.527 11.2898C159.527 10.1392 160.575 9.78125 161.751 9.62784C162.39 9.55114 164.103 9.37216 164.359 9.06534V10.446C164.359 11.6733 163.387 12.875 161.598 12.875ZM168.621 14H170.129V7.78693C170.129 6.45739 171.178 5.4858 172.61 5.4858C173.012 5.4858 173.428 5.5625 173.53 5.58807V4.05398C173.357 4.04119 172.961 4.02841 172.737 4.02841C171.561 4.02841 170.539 4.69318 170.181 5.66477H170.078V4.18182H168.621V14ZM183.27 14.2301C184.983 14.2301 185.878 13.3097 186.185 12.6705H186.261V14H187.77V7.53125C187.77 4.41193 185.392 4.05398 184.139 4.05398C182.656 4.05398 180.969 4.56534 180.202 6.35511L181.634 6.86648C181.966 6.15057 182.752 5.38352 184.19 5.38352C185.577 5.38352 186.261 6.11861 186.261 7.37784V7.42898C186.261 8.15767 185.52 8.09375 183.73 8.32386C181.908 8.56037 179.92 8.96307 179.92 11.2131C179.92 13.1307 181.403 14.2301 183.27 14.2301ZM183.5 12.875C182.298 12.875 181.429 12.3381 181.429 11.2898C181.429 10.1392 182.477 9.78125 183.653 9.62784C184.293 9.55114 186.006 9.37216 186.261 9.06534V10.446C186.261 11.6733 185.29 12.875 183.5 12.875ZM192.032 8.09375C192.032 6.38068 193.093 5.40909 194.537 5.40909C195.937 5.40909 196.787 6.32315 196.787 7.86364V14H198.296V7.76136C198.296 5.25568 196.96 4.05398 194.972 4.05398C193.489 4.05398 192.569 4.71875 192.108 5.71591H191.981V4.18182H190.523V14H192.032V8.09375ZM204.76 14.2045C206.652 14.2045 207.291 13.0284 207.624 12.4915H207.803V14H209.26V0.909091H207.751V5.74148H207.624C207.291 5.23011 206.703 4.05398 204.786 4.05398C202.305 4.05398 200.592 6.02273 200.592 9.11648C200.592 12.2358 202.305 14.2045 204.76 14.2045ZM204.964 12.8494C203.072 12.8494 202.101 11.1875 202.101 9.09091C202.101 7.01989 203.047 5.40909 204.964 5.40909C206.805 5.40909 207.777 6.89205 207.777 9.09091C207.777 11.3153 206.78 12.8494 204.964 12.8494ZM218.803 8.09375C218.803 6.38068 219.896 5.40909 221.386 5.40909C222.805 5.40909 223.661 6.30398 223.661 7.86364V14H225.17V7.76136C225.17 5.23651 223.827 4.05398 221.82 4.05398C220.273 4.05398 219.391 4.69957 218.931 5.71591H218.803V0.909091H217.295V14H218.803V8.09375ZM231.918 14.2045C234.577 14.2045 236.367 12.1847 236.367 9.14205C236.367 6.07386 234.577 4.05398 231.918 4.05398C229.259 4.05398 227.469 6.07386 227.469 9.14205C227.469 12.1847 229.259 14.2045 231.918 14.2045ZM231.918 12.8494C229.898 12.8494 228.978 11.1108 228.978 9.14205C228.978 7.1733 229.898 5.40909 231.918 5.40909C233.938 5.40909 234.858 7.1733 234.858 9.14205C234.858 11.1108 233.938 12.8494 231.918 12.8494ZM246.347 4.18182H244.71L242 12.0057H241.898L239.188 4.18182H237.551L241.182 14H242.716L246.347 4.18182ZM252.103 14.2045C254.097 14.2045 255.554 13.2074 256.015 11.7244L254.557 11.3153C254.174 12.3381 253.285 12.8494 252.103 12.8494C250.332 12.8494 249.111 11.7053 249.041 9.60227H256.168V8.96307C256.168 5.30682 253.995 4.05398 251.949 4.05398C249.29 4.05398 247.526 6.15057 247.526 9.16761C247.526 12.1847 249.265 14.2045 252.103 14.2045ZM249.041 8.2983C249.143 6.7706 250.223 5.40909 251.949 5.40909C253.586 5.40909 254.634 6.63636 254.634 8.2983H249.041ZM258.463 14H259.971V7.78693C259.971 6.45739 261.02 5.4858 262.451 5.4858C262.854 5.4858 263.27 5.5625 263.372 5.58807V4.05398C263.199 4.04119 262.803 4.02841 262.579 4.02841C261.403 4.02841 260.38 4.69318 260.022 5.66477H259.92V4.18182H258.463V14ZM268.382 8.47727C268.382 5.25568 267.512 2.57102 265.953 0.295454H264.623C265.85 1.98295 266.822 5.43466 266.822 8.47727C266.822 11.5199 265.85 14.9716 264.623 16.6591H265.953C267.512 14.3835 268.382 11.6989 268.382 8.47727Z" fill="black"/>
</svg>
