<svg width="70" height="15" viewBox="0 0 70 15" fill="none" xmlns="http://www.w3.org/2000/svg">
<path d="M4.53533 14.2045C6.42738 14.2045 7.06658 13.0284 7.39897 12.4915H7.57795V14H9.03533V0.909091H7.52681V5.74148H7.39897C7.06658 5.23011 6.47852 4.05398 4.5609 4.05398C2.08079 4.05398 0.36772 6.02273 0.36772 9.11648C0.36772 12.2358 2.08079 14.2045 4.53533 14.2045ZM4.73988 12.8494C2.84783 12.8494 1.87624 11.1875 1.87624 9.09091C1.87624 7.01989 2.82227 5.40909 4.73988 5.40909C6.58079 5.40909 7.55238 6.89205 7.55238 9.09091C7.55238 11.3153 6.55522 12.8494 4.73988 12.8494ZM12.0076 14H13.5162V4.18182H12.0076V14ZM12.7747 2.54545C13.3627 2.54545 13.8485 2.08523 13.8485 1.52273C13.8485 0.960227 13.3627 0.5 12.7747 0.5C12.1866 0.5 11.7008 0.960227 11.7008 1.52273C11.7008 2.08523 12.1866 2.54545 12.7747 2.54545ZM23.2337 6.38068C22.7607 4.98722 21.6996 4.05398 19.7564 4.05398C17.6854 4.05398 16.1513 5.23011 16.1513 6.89205C16.1513 8.24716 16.9567 9.15483 18.7592 9.5767L20.3956 9.96023C21.3864 10.1903 21.853 10.6634 21.853 11.3409C21.853 12.1847 20.9581 12.875 19.5518 12.875C18.3182 12.875 17.5447 12.3445 17.2763 11.2898L15.8445 11.6477C16.196 13.3161 17.5703 14.2045 19.5774 14.2045C21.8594 14.2045 23.4126 12.9581 23.4126 11.2642C23.4126 9.89631 22.5561 9.03338 20.8047 8.60511L19.3473 8.24716C18.1839 7.95952 17.6598 7.5696 17.6598 6.81534C17.6598 5.97159 18.5547 5.35795 19.7564 5.35795C21.0732 5.35795 21.6165 6.08665 21.8786 6.7642L23.2337 6.38068ZM28.5726 14.2301C30.2857 14.2301 31.1806 13.3097 31.4874 12.6705H31.5641V14H33.0726V7.53125C33.0726 4.41193 30.6948 4.05398 29.4419 4.05398C27.959 4.05398 26.2715 4.56534 25.5044 6.35511L26.9363 6.86648C27.2686 6.15057 28.0549 5.38352 29.4931 5.38352C30.8801 5.38352 31.5641 6.11861 31.5641 7.37784V7.42898C31.5641 8.15767 30.8226 8.09375 29.0328 8.32386C27.2111 8.56037 25.2232 8.96307 25.2232 11.2131C25.2232 13.1307 26.7061 14.2301 28.5726 14.2301ZM28.8027 12.875C27.601 12.875 26.7317 12.3381 26.7317 11.2898C26.7317 10.1392 27.78 9.78125 28.9561 9.62784C29.5953 9.55114 31.3084 9.37216 31.5641 9.06534V10.446C31.5641 11.6733 30.5925 12.875 28.8027 12.875ZM36.0305 14H37.4879V12.4915H37.6669C37.9993 13.0284 38.6385 14.2045 40.5305 14.2045C42.9851 14.2045 44.6982 12.2358 44.6982 9.11648C44.6982 6.02273 42.9851 4.05398 40.505 4.05398C38.5874 4.05398 37.9993 5.23011 37.6669 5.74148H37.5391V0.909091H36.0305V14ZM37.5135 9.09091C37.5135 6.89205 38.4851 5.40909 40.326 5.40909C42.2436 5.40909 43.1896 7.01989 43.1896 9.09091C43.1896 11.1875 42.218 12.8494 40.326 12.8494C38.5107 12.8494 37.5135 11.3153 37.5135 9.09091ZM48.5142 0.909091H47.0057V14H48.5142V0.909091ZM55.3936 14.2045C57.388 14.2045 58.8453 13.2074 59.3056 11.7244L57.8482 11.3153C57.4647 12.3381 56.5762 12.8494 55.3936 12.8494C53.623 12.8494 52.4022 11.7053 52.3319 9.60227H59.459V8.96307C59.459 5.30682 57.2857 4.05398 55.2402 4.05398C52.5811 4.05398 50.8169 6.15057 50.8169 9.16761C50.8169 12.1847 52.5556 14.2045 55.3936 14.2045ZM52.3319 8.2983C52.4341 6.7706 53.5144 5.40909 55.2402 5.40909C56.8766 5.40909 57.9249 6.63636 57.9249 8.2983H52.3319ZM65.4611 14.2045C67.3532 14.2045 67.9924 13.0284 68.3248 12.4915H68.5037V14H69.9611V0.909091H68.4526V5.74148H68.3248C67.9924 5.23011 67.4043 4.05398 65.4867 4.05398C63.0066 4.05398 61.2935 6.02273 61.2935 9.11648C61.2935 12.2358 63.0066 14.2045 65.4611 14.2045ZM65.6657 12.8494C63.7736 12.8494 62.802 11.1875 62.802 9.09091C62.802 7.01989 63.748 5.40909 65.6657 5.40909C67.5066 5.40909 68.4782 6.89205 68.4782 9.09091C68.4782 11.3153 67.481 12.8494 65.6657 12.8494Z" fill="black"/>
</svg>
