<svg width="69" height="18" viewBox="0 0 69 18" fill="none" xmlns="http://www.w3.org/2000/svg">
<path d="M0.585227 14H8.58807V12.5938H2.17045V8.14489H8.0767V6.73864H2.17045V2.31534H8.4858V0.909091H0.585227V14ZM12.2635 4.18182H10.5249L13.6442 9.09091L10.5249 14H12.2635L14.6158 10.1903L16.968 14H18.7067L15.5362 9.09091L18.7067 4.18182H16.968L14.6158 8.19602L12.2635 4.18182ZM20.8592 17.6818H22.3677V12.4915H22.4956C22.8279 13.0284 23.4672 14.2045 25.3592 14.2045C27.8137 14.2045 29.5268 12.2358 29.5268 9.11648C29.5268 6.02273 27.8137 4.05398 25.3336 4.05398C23.416 4.05398 22.8279 5.23011 22.4956 5.74148H22.3166V4.18182H20.8592V17.6818ZM22.3422 9.09091C22.3422 6.89205 23.3137 5.40909 25.1547 5.40909C27.0723 5.40909 28.0183 7.01989 28.0183 9.09091C28.0183 11.1875 27.0467 12.8494 25.1547 12.8494C23.3393 12.8494 22.3422 11.3153 22.3422 9.09091ZM33.3365 0.909091H31.8279V14H33.3365V0.909091ZM40.0881 14.2045C42.7472 14.2045 44.5369 12.1847 44.5369 9.14205C44.5369 6.07386 42.7472 4.05398 40.0881 4.05398C37.429 4.05398 35.6392 6.07386 35.6392 9.14205C35.6392 12.1847 37.429 14.2045 40.0881 14.2045ZM40.0881 12.8494C38.0682 12.8494 37.1477 11.1108 37.1477 9.14205C37.1477 7.1733 38.0682 5.40909 40.0881 5.40909C42.108 5.40909 43.0284 7.1733 43.0284 9.14205C43.0284 11.1108 42.108 12.8494 40.0881 12.8494ZM46.8397 14H48.3482V7.78693C48.3482 6.45739 49.3965 5.4858 50.8283 5.4858C51.231 5.4858 51.6465 5.5625 51.7488 5.58807V4.05398C51.5762 4.04119 51.1799 4.02841 50.9561 4.02841C49.78 4.02841 48.7573 4.69318 48.3993 5.66477H48.2971V4.18182H46.8397V14ZM57.3546 14.2045C59.3489 14.2045 60.8063 13.2074 61.2665 11.7244L59.8091 11.3153C59.4256 12.3381 58.5371 12.8494 57.3546 12.8494C55.584 12.8494 54.3631 11.7053 54.2928 9.60227H61.4199V8.96307C61.4199 5.30682 59.2466 4.05398 57.2012 4.05398C54.5421 4.05398 52.7779 6.15057 52.7779 9.16761C52.7779 12.1847 54.5165 14.2045 57.3546 14.2045ZM54.2928 8.2983C54.3951 6.7706 55.4753 5.40909 57.2012 5.40909C58.8375 5.40909 59.8858 6.63636 59.8858 8.2983H54.2928ZM63.7147 14H65.2232V7.78693C65.2232 6.45739 66.2715 5.4858 67.7033 5.4858C68.106 5.4858 68.5215 5.5625 68.6238 5.58807V4.05398C68.4512 4.04119 68.0549 4.02841 67.8311 4.02841C66.655 4.02841 65.6323 4.69318 65.2743 5.66477H65.1721V4.18182H63.7147V14Z" fill="white"/>
</svg>
