<svg width="194" height="22" viewBox="0 0 194 22" fill="none" xmlns="http://www.w3.org/2000/svg">
<path d="M7.3623 1V12.3437C7.35449 14.1875 6.49512 15.1719 4.96387 15.1719C3.5498 15.1719 2.56543 14.3281 2.55762 13H0.15918C0.15918 15.7031 2.19043 17.2187 4.90137 17.2187C7.83887 17.2187 9.76074 15.4219 9.76855 12.3437V1H7.3623ZM16.5869 17.2656C18.5713 17.2656 19.6885 16.2578 20.1338 15.3594H20.2275V17H22.5088V9.03125C22.5088 5.53906 19.7588 4.84375 17.8525 4.84375C15.6807 4.84375 13.6807 5.71875 12.8994 7.90625L15.0947 8.40625C15.4385 7.55469 16.3135 6.73437 17.8838 6.73437C19.3916 6.73437 20.165 7.52344 20.165 8.88281V8.9375C20.165 9.78906 19.29 9.77344 17.1338 10.0234C14.8604 10.2891 12.5322 10.8828 12.5322 13.6094C12.5322 15.9688 14.3057 17.2656 16.5869 17.2656ZM17.0947 15.3906C15.7744 15.3906 14.8213 14.7969 14.8213 13.6406C14.8213 12.3906 15.9307 11.9453 17.2822 11.7656C18.04 11.6641 19.8369 11.4609 20.1729 11.125V12.6719C20.1729 14.0937 19.04 15.3906 17.0947 15.3906ZM30.6748 17.2422C33.5107 17.2422 35.3467 15.5391 35.6045 13.2031H33.3311C33.0342 14.5 32.0264 15.2656 30.6904 15.2656C28.7139 15.2656 27.4404 13.6172 27.4404 11C27.4404 8.42969 28.7373 6.8125 30.6904 6.8125C32.1748 6.8125 33.0811 7.75 33.3311 8.875H35.6045C35.3545 6.45312 33.3779 4.84375 30.6514 4.84375C27.2686 4.84375 25.0811 7.39062 25.0811 11.0547C25.0811 14.6719 27.1904 17.2422 30.6748 17.2422ZM48.54 21.5V5H46.2588V6.94531H46.0635C45.6494 6.20312 44.8447 4.84375 42.6182 4.84375C39.7197 4.84375 37.5791 7.13281 37.5791 11.0234C37.5791 14.9062 39.6885 17.2344 42.5947 17.2344C44.7822 17.2344 45.6416 15.8984 46.0635 15.1328H46.2041V21.5H48.54ZM46.251 11C46.251 13.5234 45.126 15.2422 43.1182 15.2422C41.0322 15.2422 39.9385 13.4062 39.9385 11C39.9385 8.61719 41.001 6.82812 43.1182 6.82812C45.1572 6.82812 46.251 8.49219 46.251 11ZM59.2822 12.0234C59.29 14.0625 57.7744 15.0312 56.4619 15.0312C55.0166 15.0312 54.0166 13.9844 54.0166 12.3516V5H51.6807V12.6328C51.6807 15.6094 53.3135 17.1563 55.6182 17.1563C57.4229 17.1563 58.6494 16.2031 59.2041 14.9219H59.3291V17H61.626V5H59.2822V12.0234ZM69.9365 17.2422C72.5537 17.2422 74.4053 15.9531 74.9365 14L72.7256 13.6016C72.3037 14.7344 71.2881 15.3125 69.96 15.3125C67.96 15.3125 66.6162 14.0156 66.5537 11.7031H75.085V10.875C75.085 6.53906 72.4912 4.84375 69.7725 4.84375C66.4287 4.84375 64.2256 7.39062 64.2256 11.0781C64.2256 14.8047 66.3975 17.2422 69.9365 17.2422ZM66.5615 9.95312C66.6553 8.25 67.8896 6.77344 69.7881 6.77344C71.6006 6.77344 72.7881 8.11719 72.7959 9.95312H66.5615ZM86.6689 7.92969C86.1846 6.0625 84.7236 4.84375 82.1299 4.84375C79.4189 4.84375 77.4971 6.27344 77.4971 8.39844C77.4971 10.1016 78.5283 11.2344 80.7783 11.7344L82.8096 12.1797C83.9658 12.4375 84.5049 12.9531 84.5049 13.7031C84.5049 14.6328 83.5127 15.3594 81.9814 15.3594C80.583 15.3594 79.6846 14.7578 79.4033 13.5781L77.1455 13.9219C77.5361 16.0469 79.3018 17.2422 81.9971 17.2422C84.8955 17.2422 86.9033 15.7031 86.9033 13.5313C86.9033 11.8359 85.8252 10.7891 83.6221 10.2812L81.7158 9.84375C80.3955 9.53125 79.8252 9.08594 79.833 8.27344C79.8252 7.35156 80.8252 6.69531 82.1533 6.69531C83.6064 6.69531 84.2783 7.5 84.5518 8.30469L86.6689 7.92969ZM108.771 6.20312C108.224 2.78125 105.544 0.781249 102.161 0.781249C98.0205 0.781249 94.9658 3.88281 94.9658 9C94.9658 14.1172 98.0049 17.2187 102.161 17.2187C105.677 17.2187 108.247 15.0156 108.771 11.8516L106.333 11.8438C105.919 13.8906 104.2 15.0156 102.177 15.0156C99.4346 15.0156 97.3643 12.9141 97.3643 9C97.3643 5.11719 99.4268 2.98437 102.185 2.98437C104.224 2.98437 105.935 4.13281 106.333 6.20312H108.771ZM116.526 17.2422C119.909 17.2422 122.12 14.7656 122.12 11.0547C122.12 7.32031 119.909 4.84375 116.526 4.84375C113.144 4.84375 110.933 7.32031 110.933 11.0547C110.933 14.7656 113.144 17.2422 116.526 17.2422ZM116.534 15.2812C114.323 15.2812 113.292 13.3516 113.292 11.0469C113.292 8.75 114.323 6.79687 116.534 6.79687C118.729 6.79687 119.761 8.75 119.761 11.0469C119.761 13.3516 118.729 15.2812 116.534 15.2812ZM132.329 12.0234C132.337 14.0625 130.821 15.0312 129.509 15.0312C128.063 15.0312 127.063 13.9844 127.063 12.3516V5H124.728V12.6328C124.728 15.6094 126.36 17.1563 128.665 17.1563C130.47 17.1563 131.696 16.2031 132.251 14.9219H132.376V17H134.673V5H132.329V12.0234ZM146.804 7.92969C146.319 6.0625 144.858 4.84375 142.265 4.84375C139.554 4.84375 137.632 6.27344 137.632 8.39844C137.632 10.1016 138.663 11.2344 140.913 11.7344L142.944 12.1797C144.101 12.4375 144.64 12.9531 144.64 13.7031C144.64 14.6328 143.647 15.3594 142.116 15.3594C140.718 15.3594 139.819 14.7578 139.538 13.5781L137.28 13.9219C137.671 16.0469 139.437 17.2422 142.132 17.2422C145.03 17.2422 147.038 15.7031 147.038 13.5313C147.038 11.8359 145.96 10.7891 143.757 10.2812L141.851 9.84375C140.53 9.53125 139.96 9.08594 139.968 8.27344C139.96 7.35156 140.96 6.69531 142.288 6.69531C143.741 6.69531 144.413 7.5 144.687 8.30469L146.804 7.92969ZM155.208 5H152.747V2.125H150.411V5H148.653V6.875H150.411V13.9609C150.403 16.1406 152.067 17.1953 153.911 17.1563C154.653 17.1484 155.153 17.0078 155.427 16.9062L155.005 14.9766C154.849 15.0078 154.56 15.0781 154.185 15.0781C153.427 15.0781 152.747 14.8281 152.747 13.4766V6.875H155.208V5ZM162.835 17.2422C165.452 17.2422 167.304 15.9531 167.835 14L165.624 13.6016C165.202 14.7344 164.187 15.3125 162.858 15.3125C160.858 15.3125 159.515 14.0156 159.452 11.7031H167.983V10.875C167.983 6.53906 165.39 4.84375 162.671 4.84375C159.327 4.84375 157.124 7.39062 157.124 11.0781C157.124 14.8047 159.296 17.2422 162.835 17.2422ZM159.46 9.95312C159.554 8.25 160.788 6.77344 162.687 6.77344C164.499 6.77344 165.687 8.11719 165.694 9.95312H159.46ZM174.067 17.2656C176.052 17.2656 177.169 16.2578 177.614 15.3594H177.708V17H179.989V9.03125C179.989 5.53906 177.239 4.84375 175.333 4.84375C173.161 4.84375 171.161 5.71875 170.38 7.90625L172.575 8.40625C172.919 7.55469 173.794 6.73437 175.364 6.73437C176.872 6.73437 177.646 7.52344 177.646 8.88281V8.9375C177.646 9.78906 176.771 9.77344 174.614 10.0234C172.341 10.2891 170.013 10.8828 170.013 13.6094C170.013 15.9688 171.786 17.2656 174.067 17.2656ZM174.575 15.3906C173.255 15.3906 172.302 14.7969 172.302 13.6406C172.302 12.3906 173.411 11.9453 174.763 11.7656C175.521 11.6641 177.317 11.4609 177.653 11.125V12.6719C177.653 14.0937 176.521 15.3906 174.575 15.3906ZM190.702 12.0234C190.71 14.0625 189.194 15.0312 187.882 15.0312C186.437 15.0312 185.437 13.9844 185.437 12.3516V5H183.101V12.6328C183.101 15.6094 184.733 17.1563 187.038 17.1563C188.843 17.1563 190.069 16.2031 190.624 14.9219H190.749V17H193.046V5H190.702V12.0234Z" fill="white"/>
</svg>
