<svg width="140" height="20" viewBox="0 0 140 20" fill="none" xmlns="http://www.w3.org/2000/svg">
<path d="M0.125 19V1.54545H4.86364V15.1818H11.9205V19H0.125ZM17.5518 19.2045C16.7166 19.2045 15.978 19.0682 15.3359 18.7955C14.6996 18.517 14.1996 18.0966 13.8359 17.5341C13.4723 16.9716 13.2905 16.2557 13.2905 15.3864C13.2905 14.6705 13.4126 14.0597 13.657 13.554C13.9013 13.0426 14.2422 12.625 14.6797 12.3011C15.1172 11.9773 15.6257 11.7301 16.2053 11.5597C16.7905 11.3892 17.4212 11.2784 18.0973 11.2273C18.8303 11.1705 19.4183 11.1023 19.8615 11.0227C20.3104 10.9375 20.6342 10.821 20.8331 10.6733C21.032 10.5199 21.1314 10.3182 21.1314 10.0682V10.0341C21.1314 9.69318 21.0007 9.43182 20.7393 9.25C20.478 9.06818 20.1428 8.97727 19.7337 8.97727C19.2848 8.97727 18.9183 9.0767 18.6342 9.27557C18.3558 9.46875 18.1882 9.76705 18.1314 10.1705H13.8018C13.8587 9.375 14.1115 8.64205 14.5604 7.97159C15.0149 7.29545 15.6768 6.75568 16.5462 6.35227C17.4155 5.94318 18.5007 5.73864 19.8018 5.73864C20.7393 5.73864 21.5803 5.84943 22.3246 6.07102C23.0689 6.28693 23.7024 6.59091 24.2251 6.98295C24.7479 7.36932 25.1456 7.82386 25.4183 8.34659C25.6967 8.86364 25.8359 9.42614 25.8359 10.0341V19H21.4382V17.1591H21.3359C21.0746 17.6477 20.7564 18.0426 20.3814 18.3438C20.0121 18.6449 19.5888 18.8636 19.1115 19C18.6399 19.1364 18.12 19.2045 17.5518 19.2045ZM19.0859 16.2386C19.4439 16.2386 19.7791 16.1648 20.0916 16.017C20.4098 15.8693 20.6683 15.6562 20.8672 15.3778C21.0661 15.0994 21.1655 14.7614 21.1655 14.3636V13.2727C21.0405 13.3239 20.907 13.3722 20.7649 13.4176C20.6286 13.4631 20.4808 13.5057 20.3217 13.5455C20.1683 13.5852 20.0036 13.6222 19.8274 13.6562C19.657 13.6903 19.478 13.7216 19.2905 13.75C18.9268 13.8068 18.6286 13.9006 18.3956 14.0312C18.1683 14.1562 17.9979 14.3125 17.8842 14.5C17.7763 14.6818 17.7223 14.8864 17.7223 15.1136C17.7223 15.4773 17.8501 15.7557 18.1058 15.9489C18.3615 16.142 18.6882 16.2386 19.0859 16.2386ZM32.3111 15.8977L32.3452 10.3068H32.9588L36.1293 5.90909H41.4134L36.0952 12.7614H34.7656L32.3111 15.8977ZM28.0838 19V1.54545H32.7884V19H28.0838ZM36.1634 19L33.1634 13.8182L36.2315 10.4773L41.5497 19H36.1634ZM48.3722 19.2386C46.9744 19.2386 45.7699 18.9716 44.7585 18.4375C43.7528 17.8977 42.9773 17.125 42.4318 16.1193C41.892 15.108 41.6222 13.8977 41.6222 12.4886C41.6222 11.1364 41.8949 9.95455 42.4403 8.94318C42.9858 7.93182 43.7557 7.14489 44.75 6.58239C45.7443 6.01989 46.9176 5.73864 48.2699 5.73864C49.2585 5.73864 50.1534 5.89205 50.9545 6.19886C51.7557 6.50568 52.4403 6.9517 53.0085 7.53693C53.5767 8.11648 54.0142 8.82102 54.321 9.65057C54.6278 10.4801 54.7812 11.4148 54.7812 12.4545V13.5455H43.0881V10.9545H50.4517C50.446 10.5795 50.3494 10.25 50.1619 9.96591C49.9801 9.67614 49.733 9.4517 49.4205 9.29261C49.1136 9.12784 48.7642 9.04545 48.3722 9.04545C47.9915 9.04545 47.642 9.12784 47.3239 9.29261C47.0057 9.4517 46.75 9.6733 46.5568 9.95739C46.3693 10.2415 46.2699 10.5739 46.2585 10.9545V13.75C46.2585 14.1705 46.3466 14.5455 46.5227 14.875C46.6989 15.2045 46.9517 15.4631 47.2812 15.6506C47.6108 15.8381 48.0085 15.9318 48.4744 15.9318C48.7983 15.9318 49.0938 15.8864 49.3608 15.7955C49.6335 15.7045 49.8665 15.5739 50.0597 15.4034C50.2528 15.2273 50.3949 15.017 50.4858 14.7727H54.7812C54.6335 15.6818 54.2841 16.4716 53.733 17.142C53.1818 17.8068 52.4517 18.3239 51.5426 18.6932C50.6392 19.0568 49.5824 19.2386 48.3722 19.2386ZM61.4141 19V1.54545H66.1527V15.1818H73.2095V19H61.4141ZM81.5 19.2386C80.0795 19.2386 78.8636 18.9574 77.8523 18.3949C76.8409 17.8267 76.0653 17.0369 75.5256 16.0256C74.9858 15.0085 74.7159 13.8295 74.7159 12.4886C74.7159 11.1477 74.9858 9.97159 75.5256 8.96023C76.0653 7.94318 76.8409 7.15341 77.8523 6.59091C78.8636 6.02273 80.0795 5.73864 81.5 5.73864C82.9205 5.73864 84.1364 6.02273 85.1477 6.59091C86.1591 7.15341 86.9347 7.94318 87.4744 8.96023C88.0142 9.97159 88.2841 11.1477 88.2841 12.4886C88.2841 13.8295 88.0142 15.0085 87.4744 16.0256C86.9347 17.0369 86.1591 17.8267 85.1477 18.3949C84.1364 18.9574 82.9205 19.2386 81.5 19.2386ZM81.5341 15.7614C81.9318 15.7614 82.2756 15.6278 82.5653 15.3608C82.8551 15.0937 83.0795 14.7131 83.2386 14.2188C83.3977 13.7244 83.4773 13.1364 83.4773 12.4545C83.4773 11.767 83.3977 11.179 83.2386 10.6903C83.0795 10.196 82.8551 9.81534 82.5653 9.5483C82.2756 9.28125 81.9318 9.14773 81.5341 9.14773C81.1136 9.14773 80.7528 9.28125 80.4517 9.5483C80.1506 9.81534 79.9205 10.196 79.7614 10.6903C79.6023 11.179 79.5227 11.767 79.5227 12.4545C79.5227 13.1364 79.6023 13.7244 79.7614 14.2188C79.9205 14.7131 80.1506 15.0937 80.4517 15.3608C80.7528 15.6278 81.1136 15.7614 81.5341 15.7614ZM98.6818 13.2727V5.90909H103.386V19H98.9205V16.5114H98.7841C98.5 17.3466 98.0028 18 97.2926 18.4716C96.5824 18.9375 95.7386 19.1705 94.7614 19.1705C93.8466 19.1705 93.0455 18.9602 92.358 18.5398C91.6761 18.1193 91.1449 17.5398 90.7642 16.8011C90.3892 16.0625 90.1989 15.2159 90.1932 14.2614V5.90909H94.8977V13.2727C94.9034 13.9205 95.0682 14.429 95.392 14.7983C95.7216 15.1676 96.1818 15.3523 96.7727 15.3523C97.1648 15.3523 97.5028 15.2699 97.7869 15.1051C98.0767 14.9347 98.2983 14.696 98.4517 14.3892C98.6108 14.0767 98.6875 13.7045 98.6818 13.2727ZM105.779 19V5.90909H110.484V19H105.779ZM108.131 4.54545C107.495 4.54545 106.95 4.33523 106.495 3.91477C106.04 3.49432 105.813 2.98864 105.813 2.39773C105.813 1.80682 106.04 1.30114 106.495 0.880681C106.95 0.460227 107.495 0.25 108.131 0.25C108.773 0.25 109.319 0.460227 109.768 0.880681C110.222 1.30114 110.45 1.80682 110.45 2.39773C110.45 2.98864 110.222 3.49432 109.768 3.91477C109.319 4.33523 108.773 4.54545 108.131 4.54545ZM124.847 10.1705H120.517C120.494 9.90341 120.401 9.6733 120.236 9.48011C120.071 9.28693 119.858 9.1392 119.597 9.03693C119.341 8.92898 119.057 8.875 118.744 8.875C118.341 8.875 117.994 8.94886 117.705 9.09659C117.415 9.24432 117.273 9.45455 117.278 9.72727C117.273 9.92045 117.355 10.0994 117.526 10.2642C117.702 10.429 118.04 10.5568 118.54 10.6477L121.199 11.125C122.54 11.3693 123.537 11.7812 124.19 12.3608C124.849 12.9347 125.182 13.7045 125.188 14.6705C125.182 15.6023 124.903 16.4119 124.352 17.0994C123.807 17.7812 123.06 18.3097 122.111 18.6847C121.168 19.054 120.091 19.2386 118.881 19.2386C116.881 19.2386 115.315 18.8295 114.185 18.0114C113.06 17.1932 112.432 16.1136 112.301 14.7727H116.972C117.034 15.1875 117.239 15.5085 117.585 15.7358C117.938 15.9574 118.381 16.0682 118.915 16.0682C119.347 16.0682 119.702 15.9943 119.98 15.8466C120.264 15.6989 120.409 15.4886 120.415 15.2159C120.409 14.9659 120.284 14.767 120.04 14.6193C119.801 14.4716 119.426 14.3523 118.915 14.2614L116.597 13.8523C115.261 13.6193 114.261 13.1761 113.597 12.5227C112.932 11.8693 112.602 11.0284 112.608 10C112.602 9.09091 112.841 8.32102 113.324 7.69034C113.813 7.05398 114.509 6.57102 115.412 6.24148C116.321 5.90625 117.398 5.73864 118.642 5.73864C120.534 5.73864 122.026 6.13068 123.116 6.91477C124.213 7.69886 124.79 8.78409 124.847 10.1705ZM133.263 19.2386C131.865 19.2386 130.661 18.9716 129.649 18.4375C128.643 17.8977 127.868 17.125 127.322 16.1193C126.783 15.108 126.513 13.8977 126.513 12.4886C126.513 11.1364 126.786 9.95455 127.331 8.94318C127.876 7.93182 128.646 7.14489 129.641 6.58239C130.635 6.01989 131.808 5.73864 133.161 5.73864C134.149 5.73864 135.044 5.89205 135.845 6.19886C136.646 6.50568 137.331 6.9517 137.899 7.53693C138.467 8.11648 138.905 8.82102 139.212 9.65057C139.518 10.4801 139.672 11.4148 139.672 12.4545V13.5455H127.979V10.9545H135.342C135.337 10.5795 135.24 10.25 135.053 9.96591C134.871 9.67614 134.624 9.4517 134.311 9.29261C134.004 9.12784 133.655 9.04545 133.263 9.04545C132.882 9.04545 132.533 9.12784 132.214 9.29261C131.896 9.4517 131.641 9.6733 131.447 9.95739C131.26 10.2415 131.161 10.5739 131.149 10.9545V13.75C131.149 14.1705 131.237 14.5455 131.413 14.875C131.589 15.2045 131.842 15.4631 132.172 15.6506C132.501 15.8381 132.899 15.9318 133.365 15.9318C133.689 15.9318 133.984 15.8864 134.251 15.7955C134.524 15.7045 134.757 15.5739 134.95 15.4034C135.143 15.2273 135.286 15.017 135.376 14.7727H139.672C139.524 15.6818 139.175 16.4716 138.624 17.142C138.072 17.8068 137.342 18.3239 136.433 18.6932C135.53 19.0568 134.473 19.2386 133.263 19.2386Z" fill="black"/>
</svg>
